<?xml version="1.0" encoding="UTF-8" ?>
<!DOCTYPE svg PUBLIC "-//W3C//DTD SVG 1.1//EN" "http://www.w3.org/Graphics/SVG/1.1/DTD/svg11.dtd">
<svg width="215.25pt" height="261pt" viewBox="0 0 984 1192" version="1.1" xmlns="http://www.w3.org/2000/svg">
<g id="#35408eff">
<path fill="#35408e" opacity="1.00" d=" M 418.66 55.60 C 446.35 44.26 473.27 28.99 493.49 6.57 C 505.44 20.55 520.79 31.19 536.58 40.41 C 575.45 62.37 619.67 73.89 664.00 77.35 C 691.45 79.21 719.22 77.42 746.03 71.11 C 758.84 68.04 771.51 64.13 783.44 58.48 C 795.69 91.77 814.52 122.50 837.44 149.49 C 861.63 177.74 891.27 201.00 923.32 219.70 C 937.47 227.88 952.06 235.35 967.28 241.35 C 957.72 253.55 950.97 267.67 945.42 282.06 C 931.87 318.08 926.24 356.61 924.50 394.91 C 922.22 452.69 929.08 510.53 941.02 567.01 C 945.73 589.82 951.90 612.28 957.48 634.88 C 969.14 682.14 977.98 730.32 979.85 779.05 C 981.62 826.66 976.56 875.27 958.91 919.83 C 946.34 951.85 926.92 981.21 901.92 1004.88 C 874.24 1031.48 840.35 1050.90 804.73 1064.80 C 778.92 1074.86 752.06 1082.10 724.88 1087.40 C 705.96 1091.16 686.76 1093.30 667.87 1097.22 C 626.80 1105.49 586.05 1117.77 549.42 1138.47 C 532.34 1148.35 516.00 1160.01 502.90 1174.88 C 499.41 1178.95 496.00 1183.16 493.53 1187.95 C 482.95 1170.76 467.06 1157.65 450.49 1146.51 C 414.64 1123.14 373.46 1109.36 331.96 1099.97 C 309.34 1094.63 286.22 1091.97 263.40 1087.70 C 214.14 1078.20 165.38 1062.31 123.01 1034.93 C 96.34 1017.64 72.59 995.61 54.44 969.46 C 33.05 938.97 19.57 903.41 12.78 866.92 C 5.72 829.10 5.29 790.32 8.68 752.09 C 12.82 704.69 23.08 658.08 35.06 612.11 C 47.66 563.92 56.97 514.77 60.83 465.07 C 64.31 420.39 63.51 375.10 55.02 330.99 C 50.71 308.97 44.48 287.22 34.92 266.88 C 30.72 257.82 25.58 249.20 19.52 241.27 C 44.68 231.39 68.30 217.83 90.46 202.42 C 120.13 181.68 146.54 156.12 167.29 126.41 C 181.96 105.37 194.60 82.74 203.26 58.55 C 232.00 71.43 263.59 77.04 294.94 77.96 C 337.11 78.93 379.41 70.97 418.66 55.60 M 405.49 99.66 C 367.31 111.46 327.07 115.79 287.21 114.63 C 265.77 113.70 244.23 111.35 223.52 105.51 C 206.36 138.40 183.90 168.47 157.80 194.80 C 132.34 219.75 103.25 240.98 71.87 257.88 C 80.16 276.73 85.46 296.73 89.70 316.83 C 97.24 353.71 100.06 391.45 99.68 429.05 C 98.89 482.66 91.53 536.07 79.33 588.24 C 74.25 610.33 67.82 632.07 62.63 654.12 C 56.67 679.14 51.63 704.39 48.24 729.89 C 42.57 772.95 41.18 817.01 49.19 859.87 C 55.47 893.60 68.24 926.51 89.05 953.99 C 105.91 976.41 127.62 994.95 151.67 1009.29 C 182.45 1027.72 216.74 1039.64 251.63 1047.55 C 275.53 1053.29 300.06 1055.48 324.15 1060.24 C 368.72 1068.93 412.63 1082.74 452.64 1104.47 C 467.06 1112.39 481.05 1121.28 493.48 1132.12 C 499.34 1126.64 505.93 1122.01 512.54 1117.49 C 531.09 1105.17 551.08 1095.16 571.68 1086.75 C 611.47 1070.59 653.55 1060.55 696.05 1054.75 C 740.44 1048.25 784.63 1036.68 824.37 1015.41 C 856.50 998.29 885.25 974.02 905.22 943.38 C 916.30 926.43 924.67 907.79 930.61 888.45 C 943.83 845.02 945.26 798.88 941.26 753.94 C 937.04 706.85 926.52 660.60 914.17 615.05 C 906.19 585.09 899.72 554.72 895.11 524.06 C 884.87 455.38 883.32 384.77 897.19 316.48 C 901.39 296.48 906.72 276.60 914.95 257.85 C 868.60 233.00 827.17 198.59 795.65 156.39 C 783.58 140.30 772.43 123.44 763.34 105.47 C 734.11 113.64 703.48 115.40 673.27 114.65 C 648.94 113.67 624.65 110.73 600.96 105.06 C 562.55 95.63 525.43 79.71 493.37 56.39 C 466.93 75.85 436.72 89.84 405.49 99.66 Z" />
<path fill="#35408e" opacity="1.00" d=" M 364.07 130.44 C 409.84 122.93 454.44 106.81 493.37 81.42 C 527.27 103.44 565.42 118.60 604.89 127.05 C 653.38 137.25 704.03 138.85 752.71 129.02 C 772.27 162.89 796.86 193.90 825.82 220.22 C 845.39 237.89 866.88 253.39 889.46 266.97 C 876.70 303.37 870.37 341.76 867.76 380.16 C 863.08 452.94 872.16 526.03 888.50 596.92 C 893.66 619.36 899.95 641.52 905.02 663.99 C 915.25 708.57 922.68 754.13 922.34 799.99 C 922.06 841.75 914.90 884.56 894.33 921.41 C 877.92 951.13 852.40 975.15 823.23 992.18 C 785.53 1014.28 742.79 1026.27 699.90 1033.26 C 677.28 1036.53 654.70 1040.26 632.48 1045.70 C 583.24 1057.69 534.73 1076.05 493.46 1105.98 C 461.14 1082.64 424.29 1066.25 386.33 1054.49 C 356.79 1045.37 326.45 1038.96 295.85 1034.64 C 262.90 1029.84 230.20 1022.23 199.28 1009.71 C 172.50 998.84 147.04 984.06 125.92 964.18 C 101.10 941.14 83.77 910.71 74.75 878.19 C 61.92 832.65 62.62 784.49 68.32 737.89 C 71.92 709.26 77.61 680.94 84.39 652.91 C 88.51 635.50 93.32 618.26 97.40 600.84 C 108.92 551.98 117.04 502.21 119.70 452.04 C 121.66 413.04 120.52 373.76 114.39 335.15 C 110.70 311.98 105.40 289.00 97.49 266.89 C 123.69 251.10 148.44 232.75 170.39 211.40 C 195.28 187.04 216.67 159.16 234.11 129.03 C 276.84 137.71 321.13 137.37 364.07 130.44 M 270.78 259.93 C 287.45 273.45 304.47 286.55 321.24 299.95 C 321.23 324.25 321.31 348.55 321.20 372.86 C 323.56 374.60 326.03 376.20 328.48 377.81 C 336.21 382.97 343.94 388.12 351.75 393.16 C 351.75 351.10 351.76 309.05 351.75 267.00 C 354.91 267.00 358.08 267.00 361.25 267.00 C 361.27 311.23 361.19 355.46 361.29 399.69 C 369.12 404.55 376.63 409.89 384.38 414.87 C 386.76 416.54 389.20 418.10 391.60 419.73 C 391.95 379.79 391.65 339.84 391.75 299.89 C 408.53 286.47 425.62 273.43 442.22 259.81 C 406.48 259.66 370.74 259.79 334.99 259.75 C 313.59 259.87 292.18 259.50 270.78 259.93 M 544.48 259.80 C 561.18 273.33 578.19 286.49 595.02 299.86 C 594.98 435.23 595.01 570.60 595.00 705.97 C 595.25 723.81 592.47 742.09 584.18 758.07 C 577.26 771.56 566.00 782.64 552.59 789.67 C 534.92 798.87 514.70 802.06 494.95 802.01 C 477.20 802.31 459.14 800.15 442.57 793.53 C 428.03 787.78 414.96 777.85 406.48 764.62 C 395.91 748.54 392.07 729.01 391.75 710.02 C 391.73 651.47 391.79 592.91 391.72 534.36 C 389.33 532.78 386.92 531.21 384.50 529.68 C 376.79 524.49 369.01 519.39 361.31 514.18 C 361.17 580.80 361.30 647.44 361.24 714.07 C 361.87 741.47 368.53 770.04 386.50 791.46 C 399.22 806.77 417.06 817.11 435.94 822.89 C 456.00 829.05 477.14 830.81 498.04 830.51 C 516.46 830.20 534.99 827.98 552.58 822.35 C 568.59 817.15 583.87 808.81 595.58 796.57 C 609.78 782.39 618.24 763.36 622.24 743.90 C 626.56 723.89 625.67 703.32 625.75 683.00 C 625.75 544.33 625.75 405.67 625.75 267.00 C 628.83 267.00 631.91 267.00 635.00 267.00 C 635.00 413.64 635.00 560.29 635.00 706.94 C 635.08 731.77 631.15 757.21 619.44 779.38 C 612.19 793.08 601.90 805.22 589.29 814.28 C 572.83 826.33 553.11 833.21 533.15 836.68 C 515.63 839.82 497.76 840.18 480.02 839.55 C 459.06 838.49 437.95 834.88 418.66 826.38 C 402.57 819.36 387.96 808.63 377.22 794.69 C 365.30 779.39 358.15 760.82 354.72 741.84 C 350.53 719.80 352.03 697.28 351.75 674.99 C 351.70 619.39 351.84 563.79 351.68 508.20 C 344.36 502.57 336.27 497.72 328.51 492.62 L 328.51 492.44 C 326.07 490.88 323.67 489.27 321.24 487.71 C 321.27 560.45 321.24 633.19 321.25 705.92 C 320.92 732.41 324.18 759.33 334.11 784.04 C 341.38 802.14 352.77 818.65 367.62 831.36 C 380.86 842.77 396.57 851.06 413.06 856.70 C 432.04 863.14 451.98 866.39 471.94 867.64 C 506.11 869.52 541.10 867.69 573.76 856.70 C 598.56 848.34 621.59 833.38 637.11 812.04 C 657.28 784.83 664.49 750.32 665.50 717.03 C 665.51 578.00 665.49 438.97 665.50 299.95 C 682.37 286.56 699.42 273.39 716.13 259.81 C 658.91 259.71 601.69 259.72 544.48 259.80 M 680.15 355.41 C 679.90 358.94 680.00 362.49 680.00 366.03 C 692.47 376.03 705.15 385.76 717.56 395.84 C 717.44 481.53 717.51 567.23 717.52 652.93 C 705.08 644.54 692.48 636.38 680.02 628.01 C 679.99 630.89 679.99 633.78 680.00 636.67 C 680.04 645.35 679.91 654.02 680.07 662.70 C 692.61 670.83 705.02 679.18 717.46 687.49 C 718.50 688.18 719.62 688.91 720.97 688.75 C 730.04 688.78 739.12 688.71 748.19 688.77 C 748.32 580.10 748.23 471.42 748.24 362.75 C 751.32 362.75 754.41 362.75 757.51 362.75 C 757.49 474.50 757.50 586.24 757.50 697.99 C 744.02 697.82 730.47 698.37 717.04 697.73 C 704.15 690.73 692.45 681.71 680.02 673.92 C 679.97 682.60 680.00 691.29 680.01 699.97 C 679.99 702.88 679.99 705.80 680.02 708.72 C 692.54 716.90 704.90 725.38 717.51 733.41 C 757.98 733.64 798.48 733.42 838.96 733.52 C 822.11 722.19 805.12 711.06 788.23 699.79 C 788.34 598.37 788.13 496.94 788.33 395.51 C 805.28 382.25 822.21 368.94 838.99 355.47 C 786.04 355.48 733.09 355.60 680.15 355.41 M 147.65 355.47 C 164.64 366.83 181.70 378.08 198.73 389.38 C 198.71 490.73 198.87 592.09 198.65 693.44 C 181.66 706.71 164.75 720.08 147.90 733.52 C 201.23 733.53 254.57 733.41 307.91 733.58 C 307.99 730.22 307.64 726.88 307.43 723.53 C 294.69 713.56 282.10 703.40 269.30 693.51 C 269.20 607.73 269.26 521.95 269.27 436.16 C 373.06 505.09 476.92 573.93 580.73 642.83 C 580.75 639.91 580.75 636.99 580.75 634.09 C 580.77 625.44 580.71 616.80 580.78 608.16 C 477.49 539.41 374.00 470.96 270.66 402.30 C 269.20 401.45 267.86 400.05 266.05 400.25 C 256.86 400.20 247.68 400.22 238.50 400.53 C 238.51 509.10 238.47 617.68 238.52 726.25 C 235.43 726.24 232.33 726.24 229.24 726.25 C 229.26 614.51 229.26 502.77 229.24 391.02 C 243.08 391.10 256.96 390.75 270.79 391.19 C 374.12 459.61 477.38 528.18 580.62 596.74 C 580.91 588.14 580.67 579.52 580.75 570.92 C 580.74 568.01 580.74 565.11 580.78 562.21 C 504.25 511.39 427.70 460.63 351.15 409.85 C 323.77 391.79 296.59 373.41 269.08 355.58 C 228.61 355.37 188.12 355.59 147.65 355.47 M 413.36 927.38 C 407.24 933.51 406.17 943.31 408.71 951.30 C 410.96 958.35 417.89 962.67 424.84 964.09 C 434.55 965.99 444.94 965.30 453.90 960.89 C 453.42 968.16 451.02 976.62 443.73 979.80 C 434.44 983.67 423.88 981.96 414.53 979.14 C 413.83 982.80 413.00 986.45 412.38 990.13 C 421.22 993.32 430.78 993.86 440.07 993.04 C 447.89 992.31 455.93 989.34 460.97 983.05 C 467.33 975.25 468.65 964.78 468.95 955.05 C 469.07 945.85 467.58 935.81 461.15 928.77 C 455.15 922.06 445.71 919.77 437.01 919.97 C 428.71 919.93 419.56 921.35 413.36 927.38 M 523.49 920.67 C 517.39 921.67 511.32 924.58 507.73 929.77 C 503.44 935.95 502.20 943.66 501.78 951.02 C 501.55 961.99 501.34 973.95 507.71 983.45 C 513.05 991.22 523.10 993.64 532.03 993.53 C 540.90 993.80 550.85 992.09 556.96 985.05 C 563.85 976.73 564.47 965.27 564.50 954.94 C 564.10 944.82 563.05 933.17 554.89 926.07 C 546.16 919.03 534.02 919.36 523.49 920.67 M 618.59 920.70 C 612.07 921.79 605.60 925.15 602.19 931.01 C 597.04 939.71 596.84 950.20 596.99 960.02 C 597.20 968.88 598.55 978.51 604.60 985.44 C 610.62 992.23 620.33 993.71 628.95 993.53 C 637.92 993.66 648.04 991.27 653.45 983.48 C 659.74 974.33 659.94 962.62 659.65 951.93 C 659.12 942.06 657.16 930.64 648.35 924.70 C 639.60 919.08 628.51 919.41 618.59 920.70 M 327.05 934.33 C 327.55 938.10 328.10 941.87 328.69 945.63 C 334.47 942.90 340.06 939.77 345.81 937.00 C 345.11 952.23 345.68 967.49 345.50 982.74 C 340.92 982.75 336.33 982.74 331.75 982.75 C 331.76 985.96 331.76 989.17 331.70 992.39 C 346.09 992.69 360.49 992.34 374.89 992.57 C 375.04 989.29 375.02 986.02 374.99 982.75 C 370.50 982.74 366.01 982.73 361.53 982.76 C 361.42 962.08 361.61 941.40 361.43 920.72 C 358.27 920.80 355.10 920.57 351.95 920.87 C 343.51 925.08 335.44 930.01 327.05 934.33 Z" />
<path fill="#35408e" opacity="1.00" d=" M 431.50 931.75 C 436.73 930.81 442.62 930.86 447.21 933.86 C 451.29 936.53 452.89 941.54 453.40 946.15 C 453.50 947.57 453.94 949.47 452.32 950.27 C 447.48 954.01 441.05 954.85 435.10 954.44 C 431.38 954.12 427.29 953.25 424.76 950.29 C 421.85 946.69 421.71 941.46 423.47 937.32 C 424.92 934.18 428.24 932.39 431.50 931.75 Z" />
<path fill="#35408e" opacity="1.00" d=" M 526.37 932.58 C 531.53 931.32 537.49 931.05 542.29 933.69 C 547.86 937.45 548.51 944.86 548.95 950.99 C 548.99 959.11 549.63 967.66 546.33 975.31 C 544.60 979.33 540.35 981.61 536.11 981.85 C 530.76 982.30 524.13 982.01 520.75 977.17 C 517.08 971.49 517.14 964.41 516.86 957.91 C 516.92 951.64 516.95 945.15 519.29 939.24 C 520.50 936.09 523.11 933.53 526.37 932.58 Z" />
<path fill="#35408e" opacity="1.00" d=" M 621.46 932.62 C 626.20 931.33 631.47 931.26 636.13 932.94 C 642.03 935.38 643.43 942.36 643.99 948.04 C 644.59 956.51 644.87 965.29 642.36 973.51 C 641.02 978.06 636.87 981.42 632.13 981.76 C 626.12 982.51 618.18 982.00 615.19 975.77 C 611.40 967.73 612.25 958.52 612.38 949.88 C 612.87 943.38 614.29 934.90 621.46 932.62 Z" />
</g>
<g id="#ffffffff">
<path fill="#ffffff" opacity="1.00" d=" M 405.49 99.66 C 436.72 89.84 466.93 75.85 493.37 56.39 C 525.43 79.71 562.55 95.63 600.96 105.06 C 624.65 110.73 648.94 113.67 673.27 114.65 C 703.48 115.40 734.11 113.64 763.34 105.47 C 772.43 123.44 783.58 140.30 795.65 156.39 C 827.17 198.59 868.60 233.00 914.95 257.85 C 906.72 276.60 901.39 296.48 897.19 316.48 C 883.32 384.77 884.87 455.38 895.11 524.06 C 899.72 554.72 906.19 585.09 914.17 615.05 C 926.52 660.60 937.04 706.85 941.26 753.94 C 945.26 798.88 943.83 845.02 930.61 888.45 C 924.67 907.79 916.30 926.43 905.22 943.38 C 885.25 974.02 856.50 998.29 824.37 1015.41 C 784.63 1036.68 740.44 1048.25 696.05 1054.75 C 653.55 1060.55 611.47 1070.59 571.68 1086.75 C 551.08 1095.16 531.09 1105.17 512.54 1117.49 C 505.93 1122.01 499.34 1126.64 493.48 1132.12 C 481.05 1121.28 467.06 1112.39 452.64 1104.47 C 412.63 1082.74 368.72 1068.93 324.15 1060.24 C 300.06 1055.48 275.53 1053.29 251.63 1047.55 C 216.74 1039.64 182.45 1027.72 151.67 1009.29 C 127.62 994.95 105.91 976.41 89.05 953.99 C 68.24 926.51 55.47 893.60 49.19 859.87 C 41.18 817.01 42.57 772.95 48.24 729.89 C 51.63 704.39 56.67 679.14 62.63 654.12 C 67.82 632.07 74.25 610.33 79.33 588.24 C 91.53 536.07 98.89 482.66 99.68 429.05 C 100.06 391.45 97.24 353.71 89.70 316.83 C 85.46 296.73 80.16 276.73 71.87 257.88 C 103.25 240.98 132.34 219.75 157.80 194.80 C 183.90 168.47 206.36 138.40 223.52 105.51 C 244.23 111.35 265.77 113.70 287.21 114.63 C 327.07 115.79 367.31 111.46 405.49 99.66 M 364.07 130.44 C 321.13 137.37 276.84 137.71 234.11 129.03 C 216.67 159.16 195.28 187.04 170.39 211.40 C 148.44 232.75 123.69 251.10 97.49 266.89 C 105.40 289.00 110.70 311.98 114.39 335.15 C 120.52 373.76 121.66 413.04 119.70 452.04 C 117.04 502.21 108.92 551.98 97.40 600.84 C 93.32 618.26 88.51 635.50 84.39 652.91 C 77.61 680.94 71.92 709.26 68.32 737.89 C 62.62 784.49 61.92 832.65 74.75 878.19 C 83.77 910.71 101.10 941.14 125.92 964.18 C 147.04 984.06 172.50 998.84 199.28 1009.71 C 230.20 1022.23 262.90 1029.84 295.85 1034.64 C 326.45 1038.96 356.79 1045.37 386.33 1054.49 C 424.29 1066.25 461.14 1082.64 493.46 1105.98 C 534.73 1076.05 583.24 1057.69 632.48 1045.70 C 654.70 1040.26 677.28 1036.53 699.90 1033.26 C 742.79 1026.27 785.53 1014.28 823.23 992.18 C 852.40 975.15 877.92 951.13 894.33 921.41 C 914.90 884.56 922.06 841.75 922.34 799.99 C 922.68 754.13 915.25 708.57 905.02 663.99 C 899.95 641.52 893.66 619.36 888.50 596.92 C 872.16 526.03 863.08 452.94 867.76 380.16 C 870.37 341.76 876.70 303.37 889.46 266.97 C 866.88 253.39 845.39 237.89 825.82 220.22 C 796.86 193.90 772.27 162.89 752.71 129.02 C 704.03 138.85 653.38 137.25 604.89 127.05 C 565.42 118.60 527.27 103.44 493.37 81.42 C 454.44 106.81 409.84 122.93 364.07 130.44 Z" />
<path fill="#ffffff" opacity="1.00" d=" M 270.78 259.93 C 292.18 259.50 313.59 259.87 334.99 259.75 C 370.74 259.79 406.48 259.66 442.22 259.81 C 425.62 273.43 408.53 286.47 391.75 299.89 C 391.65 339.84 391.95 379.79 391.60 419.73 C 389.20 418.10 386.76 416.54 384.38 414.87 C 384.64 375.39 384.44 335.89 384.48 296.40 C 396.83 286.57 409.28 276.86 421.62 267.02 C 401.50 266.97 381.37 267.01 361.25 267.00 C 358.08 267.00 354.91 267.00 351.75 267.00 C 331.61 267.01 311.46 266.98 291.32 267.01 C 303.69 276.85 316.11 286.62 328.51 296.42 C 328.48 323.55 328.53 350.68 328.48 377.81 C 326.03 376.20 323.56 374.60 321.20 372.86 C 321.31 348.55 321.23 324.25 321.24 299.95 C 304.47 286.55 287.45 273.45 270.78 259.93 Z" />
<path fill="#ffffff" opacity="1.00" d=" M 544.48 259.80 C 601.69 259.72 658.91 259.71 716.13 259.81 C 699.42 273.39 682.37 286.56 665.50 299.95 C 665.49 438.97 665.51 578.00 665.50 717.03 C 664.49 750.32 657.28 784.83 637.11 812.04 C 621.59 833.38 598.56 848.34 573.76 856.70 C 541.10 867.69 506.11 869.52 471.94 867.64 C 451.98 866.39 432.04 863.14 413.06 856.70 C 396.57 851.06 380.86 842.77 367.62 831.36 C 352.77 818.65 341.38 802.14 334.11 784.04 C 324.18 759.33 320.92 732.41 321.25 705.92 C 321.24 633.19 321.27 560.45 321.24 487.71 C 323.67 489.27 326.07 490.88 328.51 492.44 L 328.51 492.62 C 328.50 562.40 328.50 632.18 328.50 701.95 C 327.85 735.77 332.49 771.15 350.57 800.42 C 359.29 814.59 371.39 826.60 385.42 835.51 C 399.54 844.51 415.38 850.55 431.62 854.46 C 454.95 860.04 479.07 861.49 502.99 860.94 C 533.24 860.00 564.11 855.24 591.30 841.31 C 606.60 833.43 620.35 822.35 630.67 808.53 C 641.37 794.33 648.39 777.62 652.59 760.42 C 656.83 742.96 658.54 724.93 658.25 706.98 C 658.28 570.11 658.19 433.23 658.29 296.36 C 670.71 286.63 683.10 276.86 695.44 267.02 C 675.29 266.97 655.15 267.02 635.00 267.00 C 631.91 267.00 628.83 267.00 625.75 267.00 C 605.55 267.02 585.36 266.96 565.16 267.03 C 577.51 276.75 589.78 286.57 602.18 296.21 C 602.35 434.14 602.19 572.07 602.26 710.00 C 602.02 730.37 597.78 751.31 586.46 768.55 C 577.02 783.17 562.50 794.11 546.38 800.40 C 525.69 808.59 503.03 810.20 481.00 808.98 C 462.27 807.70 443.32 803.54 427.03 793.87 C 414.06 786.27 403.21 775.05 396.31 761.67 C 387.45 744.96 384.47 725.77 384.49 707.04 C 384.52 647.92 384.48 588.80 384.50 529.68 C 386.92 531.21 389.33 532.78 391.72 534.36 C 391.79 592.91 391.73 651.47 391.75 710.02 C 392.07 729.01 395.91 748.54 406.48 764.62 C 414.96 777.85 428.03 787.78 442.57 793.53 C 459.14 800.15 477.20 802.31 494.95 802.01 C 514.70 802.06 534.92 798.87 552.59 789.67 C 566.00 782.64 577.26 771.56 584.18 758.07 C 592.47 742.09 595.25 723.81 595.00 705.97 C 595.01 570.60 594.98 435.23 595.02 299.86 C 578.19 286.49 561.18 273.33 544.48 259.80 Z" />
<path fill="#ffffff" opacity="1.00" d=" M 680.15 355.41 C 733.09 355.60 786.04 355.48 838.99 355.47 C 822.21 368.94 805.28 382.25 788.33 395.51 C 788.13 496.94 788.34 598.37 788.23 699.79 C 805.12 711.06 822.11 722.19 838.96 733.52 C 798.48 733.42 757.98 733.64 717.51 733.41 C 704.90 725.38 692.54 716.90 680.02 708.72 C 679.99 705.80 679.99 702.88 680.01 699.97 C 692.92 708.43 705.67 717.14 718.63 725.54 C 719.91 726.40 721.51 726.21 723.00 726.29 C 753.52 726.14 784.04 726.40 814.56 726.15 C 803.52 718.53 792.28 711.16 781.04 703.82 C 780.95 599.93 781.03 496.04 781.00 392.15 C 793.33 382.33 805.80 372.68 818.07 362.78 C 797.88 362.70 777.69 362.77 757.51 362.75 C 754.41 362.75 751.32 362.75 748.24 362.75 C 728.05 362.78 707.86 362.68 687.68 362.80 C 699.97 372.70 712.45 382.36 724.78 392.21 C 724.71 483.59 724.77 574.97 724.75 666.36 C 709.81 656.50 694.89 646.61 680.00 636.67 C 679.99 633.78 679.99 630.89 680.02 628.01 C 692.48 636.38 705.08 644.54 717.52 652.93 C 717.51 567.23 717.44 481.53 717.56 395.84 C 705.15 385.76 692.47 376.03 680.00 366.03 C 680.00 362.49 679.90 358.94 680.15 355.41 Z" />
<path fill="#ffffff" opacity="1.00" d=" M 147.65 355.47 C 188.12 355.59 228.61 355.37 269.08 355.58 C 296.59 373.41 323.77 391.79 351.15 409.85 C 427.70 460.63 504.25 511.39 580.78 562.21 C 580.74 565.11 580.74 568.01 580.75 570.92 C 477.01 502.08 373.27 433.25 269.54 364.40 C 268.19 363.51 266.75 362.57 265.05 362.75 C 234.00 362.78 202.94 362.67 171.89 362.81 C 183.20 370.39 194.49 377.99 205.92 385.38 C 206.10 489.19 205.95 592.99 206.00 696.80 C 193.65 706.62 181.16 716.26 168.92 726.21 C 189.02 726.30 209.13 726.23 229.24 726.25 C 232.33 726.24 235.43 726.24 238.52 726.25 C 258.66 726.23 278.80 726.30 298.94 726.21 C 286.76 716.28 274.28 706.70 261.99 696.89 C 262.01 605.49 261.99 514.09 262.00 422.69 C 368.27 493.13 474.49 563.64 580.75 634.09 C 580.75 636.99 580.75 639.91 580.73 642.83 C 476.92 573.93 373.06 505.09 269.27 436.16 C 269.26 521.95 269.20 607.73 269.30 693.51 C 282.10 703.40 294.69 713.56 307.43 723.53 C 307.64 726.88 307.99 730.22 307.91 733.58 C 254.57 733.41 201.23 733.53 147.90 733.52 C 164.75 720.08 181.66 706.71 198.65 693.44 C 198.87 592.09 198.71 490.73 198.73 389.38 C 181.70 378.08 164.64 366.83 147.65 355.47 Z" />
<path fill="#ffffff" opacity="1.00" d=" M 413.36 927.38 C 419.56 921.35 428.71 919.93 437.01 919.97 C 445.71 919.77 455.15 922.06 461.15 928.77 C 467.58 935.81 469.07 945.85 468.95 955.05 C 468.65 964.78 467.33 975.25 460.97 983.05 C 455.93 989.34 447.89 992.31 440.07 993.04 C 430.78 993.86 421.22 993.32 412.38 990.13 C 413.00 986.45 413.83 982.80 414.53 979.14 C 423.88 981.96 434.44 983.67 443.73 979.80 C 451.02 976.62 453.42 968.16 453.90 960.89 C 444.94 965.30 434.55 965.99 424.84 964.09 C 417.89 962.67 410.96 958.35 408.71 951.30 C 406.17 943.31 407.24 933.51 413.36 927.38 M 431.50 931.75 C 428.24 932.39 424.92 934.18 423.47 937.32 C 421.71 941.46 421.85 946.69 424.76 950.29 C 427.29 953.25 431.38 954.12 435.10 954.44 C 441.05 954.85 447.48 954.01 452.32 950.27 C 453.94 949.47 453.50 947.57 453.40 946.15 C 452.89 941.54 451.29 936.53 447.21 933.86 C 442.62 930.86 436.73 930.81 431.50 931.75 Z" />
<path fill="#ffffff" opacity="1.00" d=" M 523.49 920.67 C 534.02 919.36 546.16 919.03 554.89 926.07 C 563.05 933.17 564.10 944.82 564.50 954.94 C 564.47 965.27 563.85 976.73 556.96 985.05 C 550.85 992.09 540.90 993.80 532.03 993.53 C 523.10 993.64 513.05 991.22 507.71 983.45 C 501.34 973.95 501.55 961.99 501.78 951.02 C 502.20 943.66 503.44 935.95 507.73 929.77 C 511.32 924.58 517.39 921.67 523.49 920.67 M 526.37 932.58 C 523.11 933.53 520.50 936.09 519.29 939.24 C 516.95 945.15 516.92 951.64 516.86 957.91 C 517.14 964.41 517.08 971.49 520.75 977.17 C 524.13 982.01 530.76 982.30 536.11 981.85 C 540.35 981.61 544.60 979.33 546.33 975.31 C 549.63 967.66 548.99 959.11 548.95 950.99 C 548.51 944.86 547.86 937.45 542.29 933.69 C 537.49 931.05 531.53 931.32 526.37 932.58 Z" />
<path fill="#ffffff" opacity="1.00" d=" M 618.59 920.70 C 628.51 919.41 639.60 919.08 648.35 924.70 C 657.16 930.64 659.12 942.06 659.65 951.93 C 659.94 962.62 659.74 974.33 653.45 983.48 C 648.04 991.27 637.92 993.66 628.95 993.53 C 620.33 993.71 610.62 992.23 604.60 985.44 C 598.55 978.51 597.20 968.88 596.99 960.02 C 596.84 950.20 597.04 939.71 602.19 931.01 C 605.60 925.15 612.07 921.79 618.59 920.70 M 621.46 932.62 C 614.29 934.90 612.87 943.38 612.38 949.88 C 612.25 958.52 611.40 967.73 615.19 975.77 C 618.18 982.00 626.12 982.51 632.13 981.76 C 636.87 981.42 641.02 978.06 642.36 973.51 C 644.87 965.29 644.59 956.51 643.99 948.04 C 643.43 942.36 642.03 935.38 636.13 932.94 C 631.47 931.26 626.20 931.33 621.46 932.62 Z" />
<path fill="#ffffff" opacity="1.00" d=" M 327.05 934.33 C 335.44 930.01 343.51 925.08 351.95 920.87 C 355.10 920.57 358.27 920.80 361.43 920.72 C 361.61 941.40 361.42 962.08 361.53 982.76 C 366.01 982.73 370.50 982.74 374.99 982.75 C 375.02 986.02 375.04 989.29 374.89 992.57 C 360.49 992.34 346.09 992.69 331.70 992.39 C 331.76 989.17 331.76 985.96 331.75 982.75 C 336.33 982.74 340.92 982.75 345.50 982.74 C 345.68 967.49 345.11 952.23 345.81 937.00 C 340.06 939.77 334.47 942.90 328.69 945.63 C 328.10 941.87 327.55 938.10 327.05 934.33 Z" />
</g>
<g id="#ffd41cff">
<path fill="#ffd41c" opacity="1.00" d=" M 291.32 267.01 C 311.46 266.98 331.61 267.01 351.75 267.00 C 351.76 309.05 351.75 351.10 351.75 393.16 C 343.94 388.12 336.21 382.97 328.48 377.81 C 328.53 350.68 328.48 323.55 328.51 296.42 C 316.11 286.62 303.69 276.85 291.32 267.01 Z" />
<path fill="#ffd41c" opacity="1.00" d=" M 361.25 267.00 C 381.37 267.01 401.50 266.97 421.62 267.02 C 409.28 276.86 396.83 286.57 384.48 296.40 C 384.44 335.89 384.64 375.39 384.38 414.87 C 376.63 409.89 369.12 404.55 361.29 399.69 C 361.19 355.46 361.27 311.23 361.25 267.00 Z" />
<path fill="#ffd41c" opacity="1.00" d=" M 565.16 267.03 C 585.36 266.96 605.55 267.02 625.75 267.00 C 625.75 405.67 625.75 544.33 625.75 683.00 C 625.67 703.32 626.56 723.89 622.24 743.90 C 618.24 763.36 609.78 782.39 595.58 796.57 C 583.87 808.81 568.59 817.15 552.58 822.35 C 534.99 827.98 516.46 830.20 498.04 830.51 C 477.14 830.81 456.00 829.05 435.94 822.89 C 417.06 817.11 399.22 806.77 386.50 791.46 C 368.53 770.04 361.87 741.47 361.24 714.07 C 361.30 647.44 361.17 580.80 361.31 514.18 C 369.01 519.39 376.79 524.49 384.50 529.68 C 384.48 588.80 384.52 647.92 384.49 707.04 C 384.47 725.77 387.45 744.96 396.31 761.67 C 403.21 775.05 414.06 786.27 427.03 793.87 C 443.32 803.54 462.27 807.70 481.00 808.98 C 503.03 810.20 525.69 808.59 546.38 800.40 C 562.50 794.11 577.02 783.17 586.46 768.55 C 597.78 751.31 602.02 730.37 602.26 710.00 C 602.19 572.07 602.35 434.14 602.18 296.21 C 589.78 286.57 577.51 276.75 565.16 267.03 Z" />
<path fill="#ffd41c" opacity="1.00" d=" M 635.00 267.00 C 655.15 267.02 675.29 266.97 695.44 267.02 C 683.10 276.86 670.71 286.63 658.29 296.36 C 658.19 433.23 658.28 570.11 658.25 706.98 C 658.54 724.93 656.83 742.96 652.59 760.42 C 648.39 777.62 641.37 794.33 630.67 808.53 C 620.35 822.35 606.60 833.43 591.30 841.31 C 564.11 855.24 533.24 860.00 502.99 860.94 C 479.07 861.49 454.95 860.04 431.62 854.46 C 415.38 850.55 399.54 844.51 385.42 835.51 C 371.39 826.60 359.29 814.59 350.57 800.42 C 332.49 771.15 327.85 735.77 328.50 701.95 C 328.50 632.18 328.50 562.40 328.51 492.62 C 336.27 497.72 344.36 502.57 351.68 508.20 C 351.84 563.79 351.70 619.39 351.75 674.99 C 352.03 697.28 350.53 719.80 354.72 741.84 C 358.15 760.82 365.30 779.39 377.22 794.69 C 387.96 808.63 402.57 819.36 418.66 826.38 C 437.95 834.88 459.06 838.49 480.02 839.55 C 497.76 840.18 515.63 839.82 533.15 836.68 C 553.11 833.21 572.83 826.33 589.29 814.28 C 601.90 805.22 612.19 793.08 619.44 779.38 C 631.15 757.21 635.08 731.77 635.00 706.94 C 635.00 560.29 635.00 413.64 635.00 267.00 Z" />
<path fill="#ffd41c" opacity="1.00" d=" M 171.89 362.81 C 202.94 362.67 234.00 362.78 265.05 362.75 C 266.75 362.57 268.19 363.51 269.54 364.40 C 373.27 433.25 477.01 502.08 580.75 570.92 C 580.67 579.52 580.91 588.14 580.62 596.74 C 477.38 528.18 374.12 459.61 270.79 391.19 C 256.96 390.75 243.08 391.10 229.24 391.02 C 229.26 502.77 229.26 614.51 229.24 726.25 C 209.13 726.23 189.02 726.30 168.92 726.21 C 181.16 716.26 193.65 706.62 206.00 696.80 C 205.95 592.99 206.10 489.19 205.92 385.38 C 194.49 377.99 183.20 370.39 171.89 362.81 Z" />
<path fill="#ffd41c" opacity="1.00" d=" M 687.68 362.80 C 707.86 362.68 728.05 362.78 748.24 362.75 C 748.23 471.42 748.32 580.10 748.19 688.77 C 739.12 688.71 730.04 688.78 720.97 688.75 C 719.62 688.91 718.50 688.18 717.46 687.49 C 705.02 679.18 692.61 670.83 680.07 662.70 C 679.91 654.02 680.04 645.35 680.00 636.67 C 694.89 646.61 709.81 656.50 724.75 666.36 C 724.77 574.97 724.71 483.59 724.78 392.21 C 712.45 382.36 699.97 372.70 687.68 362.80 Z" />
<path fill="#ffd41c" opacity="1.00" d=" M 757.51 362.75 C 777.69 362.77 797.88 362.70 818.07 362.78 C 805.80 372.68 793.33 382.33 781.00 392.15 C 781.03 496.04 780.95 599.93 781.04 703.82 C 792.28 711.16 803.52 718.53 814.56 726.15 C 784.04 726.40 753.52 726.14 723.00 726.29 C 721.51 726.21 719.91 726.40 718.63 725.54 C 705.67 717.14 692.92 708.43 680.01 699.97 C 680.00 691.29 679.97 682.60 680.02 673.92 C 692.45 681.71 704.15 690.73 717.04 697.73 C 730.47 698.37 744.02 697.82 757.50 697.99 C 757.50 586.24 757.49 474.50 757.51 362.75 Z" />
<path fill="#ffd41c" opacity="1.00" d=" M 238.50 400.53 C 247.68 400.22 256.86 400.20 266.05 400.25 C 267.86 400.05 269.20 401.45 270.66 402.30 C 374.00 470.96 477.49 539.41 580.78 608.16 C 580.71 616.80 580.77 625.44 580.75 634.09 C 474.49 563.64 368.27 493.13 262.00 422.69 C 261.99 514.09 262.01 605.49 261.99 696.89 C 274.28 706.70 286.76 716.28 298.94 726.21 C 278.80 726.30 258.66 726.23 238.52 726.25 C 238.47 617.68 238.51 509.10 238.50 400.53 Z" />
</g>
</svg>
